<svg width="32" height="32" viewBox="0 0 32 32" fill="none" xmlns="http://www.w3.org/2000/svg">
<path fill-rule="evenodd" clip-rule="evenodd" d="M16 32C24.8366 32 32 24.8366 32 16C32 7.16344 24.8366 0 16 0C7.16344 0 0 7.16344 0 16C0 24.8366 7.16344 32 16 32ZM18.9439 8.28403L19.2279 8C22.0526 8.05044 24.6109 10.0059 24.6109 10.0059C27.4855 16.0069 27.3019 21.1885 27.3019 21.1885C24.962 24.214 21.485 23.9966 21.485 23.9966L20.298 22.4922C22.3871 22.0411 23.7079 20.1856 23.7079 20.1856C23.7079 20.1856 20.5653 22.3252 16.0521 22.3252C11.5389 22.3252 8.3964 20.1856 8.3964 20.1856C8.3964 20.1856 9.71667 22.0411 11.8063 22.4922L10.6197 23.9966C10.6197 23.9966 7.14273 24.214 4.80237 21.1885C4.80237 21.1885 4.61824 16.0069 7.49336 10.0059C7.49336 10.0059 10.0511 8.04995 12.8763 8L13.1604 8.28403C13.1604 8.28403 10.151 9.16993 8.4297 10.7076C8.4297 10.7076 11.5727 8.7855 16.0521 8.7855C20.5316 8.7855 23.6741 10.7076 23.6741 10.7076C21.9527 9.16993 18.9439 8.28403 18.9439 8.28403ZM10.6525 17.2434C10.6525 18.3967 11.5218 19.3663 12.5918 19.3663C13.678 19.3663 14.5472 18.3967 14.5472 17.2434C14.5644 16.0735 13.6785 15.1205 12.5918 15.1205C11.5051 15.1205 10.6525 16.0901 10.6525 17.2434ZM17.6236 17.2434C17.6236 18.3967 18.4924 19.3663 19.5624 19.3663C20.6486 19.3663 21.5178 18.4133 21.5178 17.2434C21.5178 16.0735 20.6486 15.1205 19.5624 15.1205C18.4762 15.1205 17.6236 16.0901 17.6236 17.2434Z" fill="white"/>
</svg>
