<svg width="135" height="46" viewBox="0 0 135 46" fill="none" xmlns="http://www.w3.org/2000/svg">
<path d="M36.5053 3L5.3942 12.8551L3 26.6792L29.742 43L42.8821 24.6425L36.5053 3Z" stroke="white" stroke-width="4" stroke-miterlimit="10"/>
<path d="M5.39421 12.8551L35.8367 9.69568L29.742 43" stroke="white" stroke-width="4" stroke-miterlimit="10"/>
<path d="M42.8821 24.6425L35.8367 9.69565L36.5053 3" stroke="white" stroke-width="4" stroke-miterlimit="10"/>
<path d="M66.6964 13.34C66.5215 14.3396 66.0217 15.0956 65.2033 15.6204C66.0217 16.2389 66.3528 17.1198 66.2029 18.2631C66.0717 19.2502 65.6094 20.0436 64.8159 20.6496C64.0225 21.2556 62.9666 21.5555 61.6484 21.5555H56.8253L58.8683 9.92261H63.2915C64.4411 9.92261 65.3407 10.2412 65.9842 10.8847C66.6277 11.5282 66.8651 12.3466 66.6964 13.3463V13.34ZM63.2853 17.9132C63.3415 17.6133 63.2915 17.3759 63.1416 17.201C62.9916 17.0261 62.748 16.9323 62.4169 16.9323H60.6051L60.2552 18.8941H62.0483C62.3669 18.8941 62.6418 18.8004 62.8604 18.6192C63.0791 18.438 63.2228 18.2006 63.279 17.9132H63.2853ZM62.8542 12.5778H61.3735L61.0549 14.4083H62.5168C62.8167 14.4083 63.0729 14.3271 63.2915 14.1647C63.5102 14.0022 63.6351 13.7773 63.6789 13.49C63.7226 13.2151 63.6726 12.9901 63.5227 12.8277C63.3727 12.659 63.1478 12.5778 62.8479 12.5778H62.8542Z" fill="white"/>
<path d="M75.7679 12.6965H71.3633L71.0635 14.3271H75.0869L74.5871 17.051H70.5949L70.295 18.7629H74.7807L74.2997 21.5555H66.8214L68.8643 9.92261H76.2614L75.7616 12.6965H75.7679Z" fill="white"/>
<path d="M82.5339 9.91638C84.0646 9.91638 85.2891 10.5037 86.2075 11.6782C87.1259 12.8527 87.4445 14.2584 87.1571 15.9015C86.8572 17.5634 86.1013 18.9191 84.8768 19.9749C83.6585 21.0245 82.1966 21.5555 80.491 21.5555H75.7241L77.7983 9.92263H82.5339V9.91638ZM84.2333 15.6829C84.377 14.8082 84.2458 14.1085 83.8334 13.5774C83.4211 13.0526 82.8151 12.7902 82.0029 12.7902H80.3223L79.2602 18.6754H80.8658C81.7093 18.6754 82.434 18.4005 83.0525 17.8508C83.671 17.301 84.0583 16.5763 84.227 15.6829H84.2333Z" fill="white"/>
<path d="M97.6967 14.1085C97.5655 14.8519 97.2781 15.5017 96.8408 16.0514C96.4035 16.6075 95.8474 17.0323 95.1727 17.3322L96.7658 21.5555H93.7733L92.4051 17.8008L91.1368 17.7883L90.4746 21.5555H87.507L89.5562 9.92261H94.1169C95.2727 9.92261 96.2098 10.3349 96.9283 11.1534C97.6467 11.9718 97.9029 12.9589 97.6905 14.1147L97.6967 14.1085ZM92.0427 12.659L91.5804 15.2767H93.2922C93.6546 15.2767 93.9669 15.1643 94.2293 14.9144C94.4917 14.6707 94.6542 14.3521 94.7166 13.9648C94.7791 13.5774 94.7166 13.2588 94.523 13.0151C94.3293 12.7715 94.0294 12.6465 93.6358 12.6465H92.0427V12.659Z" fill="white"/>
<path d="M103.451 21.8058C102.276 21.8058 101.252 21.5122 100.377 20.9249C99.5022 20.3377 98.8837 19.5692 98.5151 18.6133C98.1528 17.6575 98.0591 16.6391 98.2527 15.552C98.5401 13.8902 99.3211 12.4908 100.596 11.36C101.87 10.2291 103.413 9.66687 105.231 9.66687C107.049 9.66687 108.367 10.2854 109.342 11.5224C110.323 12.7594 110.673 14.2151 110.398 15.8832C110.111 17.57 109.336 18.9757 108.08 20.1065C106.824 21.2373 105.281 21.7996 103.451 21.7996V21.8058ZM101.664 18.0136C102.132 18.6008 102.82 18.8945 103.719 18.8945C104.619 18.8945 105.425 18.6008 106.137 18.0073C106.849 17.4138 107.287 16.6579 107.443 15.7395C107.612 14.8211 107.443 14.0651 106.962 13.4716C106.474 12.8781 105.781 12.5845 104.881 12.5845C103.982 12.5845 103.188 12.8781 102.495 13.4716C101.801 14.0651 101.37 14.8211 101.208 15.7395C101.039 16.6704 101.195 17.4326 101.664 18.0198V18.0136Z" fill="white"/>
<path d="M116.564 21.8062C114.777 21.8062 113.397 21.2064 112.416 20.0131C111.435 18.8136 111.091 17.3392 111.379 15.5774C111.654 13.8593 112.441 12.4473 113.728 11.3415C115.015 10.2357 116.521 9.67969 118.239 9.67969C119.382 9.67969 120.35 9.92959 121.156 10.4169C121.962 10.9042 122.574 11.5914 122.993 12.4536L120.269 13.903C119.825 13.0284 119.057 12.591 117.957 12.591C117.045 12.591 116.258 12.8847 115.59 13.4657C114.921 14.0467 114.503 14.8089 114.334 15.7523C114.178 16.6707 114.321 17.4266 114.765 18.0201C115.209 18.6137 115.871 18.9073 116.758 18.9073C117.876 18.9073 118.788 18.4387 119.482 17.5079L121.925 19.0885C121.306 19.9506 120.525 20.6254 119.588 21.1002C118.651 21.575 117.639 21.8124 116.552 21.8124L116.564 21.8062Z" fill="white"/>
<path d="M134.182 9.91638L129.228 15.7016L132.189 21.5555H129.116L126.454 16.2576L125.523 21.5555H122.556L124.605 9.92263H127.572L126.742 14.6395L130.715 9.92263H134.189L134.182 9.91638Z" fill="white"/>
<path d="M57.7999 32.9634H61.8046L61.3048 35.8373H54.3201L56.3692 24.2043H59.3431L57.7999 32.9634Z" fill="white"/>
<path d="M69.8452 35.8373L69.664 34.1567H65.7905L64.9908 35.8373H61.7171L67.6023 24.2043H71.2259L73.0189 35.8373H69.8452ZM67.0213 31.6014H69.3829L68.9518 27.578L67.0213 31.6014Z" fill="white"/>
<path d="M83.746 27.628C83.571 28.6276 83.0712 29.3835 82.2528 29.9083C83.0712 30.5268 83.4023 31.4077 83.2524 32.551C83.1212 33.5381 82.6589 34.3316 81.8654 34.9376C81.072 35.5436 80.0162 35.8435 78.6979 35.8435H73.8748L75.9178 24.2106H80.341C81.4906 24.2106 82.3902 24.5292 83.0337 25.1727C83.6772 25.8162 83.9146 26.6346 83.746 27.6342V27.628ZM80.3348 32.1949C80.391 31.895 80.341 31.6576 80.1911 31.4827C80.0412 31.3078 79.8038 31.2141 79.4664 31.2141H77.6546L77.3047 33.1758H79.0978C79.4164 33.1758 79.6913 33.0821 79.91 32.9009C80.1286 32.7197 80.2723 32.4823 80.3286 32.1949H80.3348ZM79.9037 26.8595H78.4231L78.1044 28.6901H79.5664C79.8662 28.6901 80.1224 28.6088 80.341 28.4464C80.5597 28.284 80.6847 28.0591 80.7284 27.7717C80.7721 27.4968 80.7221 27.2719 80.5722 27.1094C80.4223 26.9407 80.1974 26.8595 79.8975 26.8595H79.9037Z" fill="white"/>
<path d="M88.0005 36.0877C86.7573 36.0877 85.7577 35.8315 84.9892 35.313C84.227 34.7944 83.721 34.0885 83.4773 33.1951L86.12 31.8331C86.4324 32.7952 87.1384 33.2763 88.2504 33.2763C89.1563 33.2763 89.6624 33.0076 89.7623 32.4766C89.8311 32.1142 89.5749 31.8081 89.0001 31.5645C88.9127 31.5207 88.5066 31.377 87.7881 31.1334C86.7698 30.7898 85.9951 30.3274 85.4765 29.7402C84.958 29.1529 84.783 28.347 84.958 27.3286C85.1454 26.2665 85.6514 25.4356 86.4761 24.8421C87.3008 24.2486 88.2817 23.955 89.4125 23.955C90.3871 23.955 91.2243 24.1861 91.9302 24.6422C92.6362 25.1045 93.1547 25.7605 93.4859 26.6102L90.9431 27.9721C90.5745 27.1662 89.9872 26.7601 89.1813 26.7601C88.4816 26.7601 88.0817 27.01 87.9818 27.5098C87.9131 27.7847 88.013 28.0159 88.2817 28.197C88.5503 28.3782 89.0439 28.5969 89.7811 28.853C90.2934 29.028 90.7057 29.1966 91.0306 29.3528C91.3492 29.509 91.6866 29.7339 92.0364 30.0276C92.3863 30.3212 92.6237 30.6898 92.7424 31.1396C92.8611 31.5894 92.8736 32.1205 92.7736 32.7265C92.5737 33.8261 92.0552 34.657 91.2118 35.2255C90.3683 35.794 89.3 36.0814 88.0005 36.0814V36.0877Z" fill="white"/>
</svg>
