<svg width="32" height="32" viewBox="0 0 32 32" fill="none" xmlns="http://www.w3.org/2000/svg">
<path fillRule="evenodd" clipRule="evenodd" d="M16 32C24.8366 32 32 24.8366 32 16C32 7.16344 24.8366 0 16 0C7.16344 0 0 7.16344 0 16C0 24.8366 7.16344 32 16 32ZM10.959 22C14.2503 22 16.9182 19.3136 16.9182 15.9999C16.9182 12.6862 14.2501 10 10.959 10C7.66799 10 5 12.6854 5 15.9999C5 19.3144 7.66779 22 10.959 22ZM23.4561 15.998C23.4561 19.1173 22.1221 21.646 20.4765 21.646C18.8309 21.646 17.4969 19.1173 17.4969 15.998C17.4969 12.8787 18.8309 10.35 20.4765 10.35C22.1221 10.35 23.4561 12.8787 23.4561 15.998ZM26.1303 16.001C26.1303 18.7959 25.6611 21.0614 25.0823 21.0614C24.5036 21.0614 24.0344 18.7951 24.0344 16.001C24.0344 13.207 24.5036 10.9406 25.0826 10.9406C25.6615 10.9406 26.1303 13.2063 26.1303 16.001Z" fill="white"/>
</svg>
