<svg width="32" height="32" viewBox="0 0 32 32" fill="none" xmlns="http://www.w3.org/2000/svg">
<path fill-rule="evenodd" clip-rule="evenodd" d="M16 32C24.8366 32 32 24.8366 32 16C32 7.16344 24.8366 0 16 0C7.16344 0 0 7.16344 0 16C0 24.8366 7.16344 32 16 32ZM5.69082 14.6219L22.5902 8.1052C23.3613 7.75635 24.1066 8.29107 23.8121 9.47202L20.9346 23.0334C20.7334 23.998 20.153 24.2268 19.3447 23.7817L14.9612 20.5438L12.8537 22.5931C12.8459 22.6007 12.8381 22.6082 12.8303 22.6157C12.5952 22.8431 12.4003 23.0315 11.9759 23.0315L12.2752 18.5594L12.2733 18.5584H12.2752L20.4084 11.2182C20.7649 10.9017 20.3312 10.7464 19.8565 11.0352L9.81796 17.3689L5.47922 16.0154C4.54418 15.7285 4.53751 15.0851 5.69082 14.6219Z" fill="white"/>
</svg>
